<svg width="47" height="36" viewBox="0 0 47 36" fill="none" xmlns="http://www.w3.org/2000/svg">
<path d="M31.8359 24.5078C31.7578 24.5078 31.6875 24.5156 31.625 24.5312C31.5781 24.5312 31.5234 24.5312 31.4609 24.5312C30.6953 26.25 30.0156 27.7578 29.4219 29.0547C28.8438 30.3516 28.3984 31.2891 28.0859 31.8672C27.8203 32.3516 27.5156 32.7734 27.1719 33.1328C26.8438 33.4922 26.4922 33.7891 26.1172 34.0234C25.7422 34.2734 25.3594 34.4531 24.9688 34.5625C24.5938 34.6875 24.2422 34.75 23.9141 34.75C23.4297 34.75 23.0234 34.6328 22.6953 34.3984C22.3672 34.1641 22.2031 33.8125 22.2031 33.3438C22.2031 32.9375 22.3281 32.4609 22.5781 31.9141L25.9531 24.7656C24.25 24.8281 22.6094 24.8828 21.0312 24.9297C19.4688 24.9766 17.9609 25.0156 16.5078 25.0469C15.7734 26.5469 14.9844 27.9609 14.1406 29.2891C13.2969 30.6016 12.4062 31.75 11.4688 32.7344C10.5312 33.7188 9.55469 34.4922 8.53906 35.0547C7.52344 35.6328 6.46875 35.9219 5.375 35.9219C4.53125 35.9219 3.75 35.7031 3.03125 35.2656C2.8125 35.1719 2.57031 34.9922 2.30469 34.7266C2.05469 34.4766 1.82031 34.1719 1.60156 33.8125C1.38281 33.4531 1.19531 33.0625 1.03906 32.6406C0.898438 32.2188 0.828125 31.7891 0.828125 31.3516C0.828125 31.0391 0.882812 30.7422 0.992188 30.4609C1.10156 30.1641 1.25781 29.8828 1.46094 29.6172C1.55469 29.5078 1.66406 29.3672 1.78906 29.1953C1.91406 29.0234 2.0625 28.8594 2.23438 28.7031C2.40625 28.5312 2.58594 28.3906 2.77344 28.2812C2.97656 28.1719 3.19531 28.1172 3.42969 28.1172C3.52344 28.1172 3.61719 28.1328 3.71094 28.1641C3.80469 28.1797 3.89062 28.2188 3.96875 28.2812C4.125 28.375 4.27344 28.5859 4.41406 28.9141C4.57031 29.2422 4.73438 29.5859 4.90625 29.9453C5.09375 30.2891 5.29688 30.6016 5.51562 30.8828C5.73438 31.1641 5.99219 31.3047 6.28906 31.3047C6.71094 31.3047 7.13281 31.1484 7.55469 30.8359C7.99219 30.5078 8.42969 30.0625 8.86719 29.5C9.32031 28.9219 9.77344 28.2344 10.2266 27.4375C10.6797 26.6406 11.1328 25.7734 11.5859 24.8359C11.0859 24.6797 10.7344 24.4609 10.5312 24.1797C10.3281 23.8828 10.2266 23.5781 10.2266 23.2656C10.2266 23.0781 10.2969 22.8906 10.4375 22.7031C10.5781 22.5156 10.7734 22.3516 11.0234 22.2109C11.2734 22.0547 11.5625 21.9219 11.8906 21.8125C12.2344 21.7031 12.6094 21.6406 13.0156 21.625C13.5781 20.25 14.1172 18.8203 14.6328 17.3359C15.1484 15.8516 15.6406 14.3984 16.1094 12.9766C16.5781 11.5547 17.0078 10.1953 17.3984 8.89844C17.7891 7.58594 18.1328 6.41406 18.4297 5.38281C18.7266 4.35156 18.9688 3.5 19.1562 2.82812C19.3438 2.15625 19.4609 1.73437 19.5078 1.5625C19.6328 1.07812 19.8672 0.726562 20.2109 0.507812C20.5703 0.289063 20.9531 0.179688 21.3594 0.179688C21.9688 0.179688 22.4297 0.382813 22.7422 0.789062C23.0703 1.17969 23.2344 1.89844 23.2344 2.94531C23.2344 3.07031 23.2344 3.20312 23.2344 3.34375C23.2344 3.46875 23.2266 3.60937 23.2109 3.76562C23.1797 4.17187 23.1016 4.72656 22.9766 5.42969C22.8516 6.11719 22.6875 6.91406 22.4844 7.82031C22.2812 8.72656 22.0312 9.72656 21.7344 10.8203C21.4375 11.8984 21.1016 13.0312 20.7266 14.2188C20.3672 15.3906 19.9609 16.6016 19.5078 17.8516C19.0703 19.1016 18.5938 20.3438 18.0781 21.5781C18.5625 21.5781 19.0938 21.5781 19.6719 21.5781C20.25 21.5781 20.8984 21.5859 21.6172 21.6016C22.3516 21.6016 23.1797 21.6172 24.1016 21.6484C25.0234 21.6641 26.0781 21.6875 27.2656 21.7188C27.2812 21.7188 27.2969 21.7266 27.3125 21.7422C27.3281 21.7422 27.3438 21.7422 27.3594 21.7422C28.7344 18.8516 30.0391 16.1328 31.2734 13.5859C32.5078 11.0234 33.6406 8.78906 34.6719 6.88281C35.7031 4.96094 36.6172 3.44531 37.4141 2.33594C38.2109 1.22656 38.8672 0.671875 39.3828 0.671875C39.9297 0.671875 40.3359 0.804688 40.6016 1.07031C40.8828 1.32031 41.0234 1.66406 41.0234 2.10156C41.0234 2.33594 40.9922 2.54688 40.9297 2.73438C40.8828 2.90625 40.8125 3.10156 40.7188 3.32031C40.3125 4.30469 39.7969 5.51563 39.1719 6.95312C38.5469 8.39062 37.8672 9.94531 37.1328 11.6172C36.3984 13.2734 35.6328 15 34.8359 16.7969C34.0547 18.5781 33.2969 20.3047 32.5625 21.9766C33.0312 22.0703 33.4141 22.2031 33.7109 22.375C34.0234 22.5312 34.1797 22.7422 34.1797 23.0078C34.1797 23.3516 34 23.6797 33.6406 23.9922C33.2812 24.2891 32.6797 24.4609 31.8359 24.5078ZM47 30.7422C47 31.2266 46.9062 31.6875 46.7188 32.125C46.5469 32.5625 46.3047 32.9531 45.9922 33.2969C45.6953 33.625 45.3438 33.8828 44.9375 34.0703C44.5312 34.2734 44.1016 34.375 43.6484 34.375C43.2734 34.375 42.9219 34.2969 42.5938 34.1406C42.2656 34 41.9766 33.8047 41.7266 33.5547C41.4922 33.3047 41.3047 33.0156 41.1641 32.6875C41.0234 32.3438 40.9531 31.9844 40.9531 31.6094C40.9531 31.1406 41.0391 30.6953 41.2109 30.2734C41.3984 29.8359 41.6484 29.4531 41.9609 29.125C42.2734 28.7969 42.6406 28.5391 43.0625 28.3516C43.4844 28.1484 43.9375 28.0469 44.4219 28.0469C45.1875 28.0469 45.8047 28.3047 46.2734 28.8203C46.7578 29.3359 47 29.9766 47 30.7422Z" fill="black"/>
</svg>
